<?xml version="1.0" standalone="no"?>
<!DOCTYPE svg PUBLIC "-//W3C//DTD SVG 20010904//EN"
 "http://www.w3.org/TR/2001/REC-SVG-20010904/DTD/svg10.dtd">
<svg version="1.0" xmlns="http://www.w3.org/2000/svg"
 width="1200.000000pt" height="492.000000pt" viewBox="0 0 1200.000000 492.000000"
 preserveAspectRatio="xMidYMid meet">

<g transform="translate(0.000000,492.000000) scale(0.100000,-0.100000)"
fill="#ffffff" stroke="none">
<path d="M3275 4433 c-311 -40 -519 -103 -677 -204 l-47 -30 -283 -3 c-301 -3
-425 -15 -633 -62 -826 -184 -1365 -755 -1491 -1579 -25 -163 -23 -425 4 -586
95 -564 418 -1029 922 -1325 490 -289 1093 -377 1619 -238 334 88 630 283 817
537 46 61 53 84 32 105 -21 21 -39 13 -112 -54 -306 -284 -663 -441 -1083
-475 -504 -41 -1024 142 -1411 496 -140 128 -291 332 -386 522 -174 347 -222
751 -130 1103 102 395 368 770 707 999 353 238 843 327 1324 240 l62 -11 113
65 c148 86 308 162 383 181 32 8 61 14 62 12 2 -2 -24 -82 -58 -179 l-61 -176
24 -43 c14 -24 248 -417 521 -875 345 -578 497 -840 497 -860 -1 -144 -113
-313 -252 -380 -71 -35 -128 -50 -128 -34 0 31 -138 208 -262 337 -168 173
-194 193 -508 409 -387 265 -522 370 -672 519 -95 95 -157 177 -200 264 -29
59 -33 77 -34 157 -2 117 -2 112 -20 119 -29 11 -52 -12 -63 -64 -26 -121 -6
-243 64 -386 113 -234 324 -449 825 -839 172 -134 285 -231 382 -328 142 -143
285 -312 341 -404 18 -29 39 -55 48 -58 22 -7 191 54 292 107 105 55 220 140
280 209 26 30 67 92 90 138 l42 84 0 116 0 116 -116 210 c-136 244 -282 508
-622 1125 l-245 446 64 273 c61 258 64 275 48 292 -10 11 -22 18 -28 18 -6 -1
-24 -4 -41 -6z"/>
<path d="M6570 2465 l0 -515 65 0 65 0 0 262 0 261 26 35 c71 92 236 96 278 7
13 -27 16 -78 16 -299 l0 -266 66 0 65 0 -3 283 -3 283 -30 59 c-40 78 -97
110 -195 110 -82 -1 -132 -18 -181 -62 l-39 -35 0 196 0 196 -65 0 -65 0 0
-515z"/>
<path d="M5537 2922 c-10 -10 -17 -35 -17 -55 0 -41 27 -67 70 -67 14 0 36 7
48 16 28 20 31 83 4 107 -25 23 -85 22 -105 -1z"/>
<path d="M4790 2440 l0 -490 300 0 300 0 0 50 0 50 -235 0 -235 0 0 440 0 440
-65 0 -65 0 0 -490z"/>
<path d="M6052 2675 c-159 -44 -240 -185 -229 -395 8 -162 63 -262 172 -316
146 -71 330 -22 405 109 16 29 30 63 30 77 0 24 -2 25 -60 22 -53 -3 -60 -6
-60 -24 0 -11 -17 -37 -38 -58 -80 -81 -210 -75 -275 12 -39 52 -51 105 -51
213 0 86 4 108 26 156 34 75 74 102 154 107 98 7 159 -33 181 -118 9 -34 10
-35 66 -38 l57 -3 0 33 c-1 75 -73 173 -154 209 -59 26 -159 32 -224 14z"/>
<path d="M7557 2680 c-60 -16 -110 -45 -154 -93 -52 -56 -69 -90 -88 -169 -38
-161 2 -321 102 -408 133 -117 368 -100 474 34 12 15 20 28 18 30 -2 1 -19 14
-37 29 l-34 27 -44 -39 c-135 -118 -336 -44 -360 132 l-7 47 248 0 248 0 -5
93 c-4 73 -11 106 -33 155 -30 66 -85 125 -139 147 -44 18 -143 26 -189 15z
m143 -115 c16 -8 40 -30 54 -48 25 -33 51 -121 41 -138 -8 -11 -365 -12 -365
-1 0 5 6 29 14 55 17 57 50 103 90 128 38 23 125 25 166 4z"/>
<path d="M8253 2680 c-140 -29 -225 -154 -182 -267 24 -65 95 -109 230 -143
46 -12 102 -30 125 -41 100 -48 78 -162 -37 -189 -101 -25 -207 23 -224 100
-6 29 -8 30 -66 30 -57 0 -59 -1 -59 -27 0 -41 38 -110 78 -143 75 -62 216
-86 322 -54 113 33 171 100 172 197 1 113 -65 172 -243 217 -121 31 -164 52
-176 87 -15 42 4 93 44 116 40 23 129 25 171 3 37 -19 72 -62 72 -87 0 -17 8
-19 65 -19 71 0 72 1 54 63 -14 52 -69 110 -127 135 -57 25 -159 35 -219 22z"/>
<path d="M8950 2675 c-94 -27 -163 -98 -176 -181 -5 -35 -1 -53 17 -91 31 -63
99 -103 222 -133 150 -37 187 -63 187 -130 0 -61 -35 -92 -121 -105 -88 -13
-176 31 -199 100 -11 35 -12 35 -71 35 -55 0 -59 -2 -59 -23 0 -44 50 -126 95
-157 134 -92 364 -71 445 42 53 73 49 175 -10 235 -40 41 -98 67 -225 102
-124 33 -155 56 -155 111 0 71 65 108 169 98 67 -7 104 -37 125 -100 4 -15 17
-18 66 -18 56 0 60 2 60 23 -1 68 -83 163 -162 187 -67 19 -148 21 -208 5z"/>
<path d="M10077 2680 c-179 -46 -282 -230 -249 -446 21 -133 83 -223 192 -277
66 -32 205 -31 275 3 140 68 213 233 186 418 -6 41 -20 94 -30 118 -28 62
-103 138 -162 163 -57 25 -157 35 -212 21z m170 -120 c18 -11 46 -38 62 -60
88 -121 59 -365 -52 -438 -33 -22 -52 -27 -103 -27 -53 0 -69 4 -105 30 -63
44 -92 109 -97 216 -7 138 30 230 113 280 42 26 139 26 182 -1z"/>
<path d="M10888 2680 c-40 -12 -95 -48 -104 -68 -6 -13 -9 -7 -13 23 l-6 40
-60 0 -60 0 -3 -355 c-1 -195 -1 -359 2 -365 2 -6 30 -9 65 -7 l61 4 0 260 c0
247 1 261 21 289 30 43 75 62 146 63 l63 1 0 56 c0 50 -3 57 -22 63 -29 7 -56
6 -90 -4z"/>
<path d="M11293 2681 c-100 -26 -179 -113 -209 -231 -18 -71 -15 -233 5 -300
18 -60 74 -143 116 -172 87 -61 224 -60 313 2 l42 30 0 -48 c-1 -92 -35 -151
-105 -183 -75 -35 -165 -21 -241 37 l-47 36 -31 -31 c-35 -36 -32 -47 25 -93
77 -62 218 -85 325 -53 76 22 129 67 164 138 l30 62 0 400 1 400 -56 3 -55 3
0 -41 c0 -46 -3 -48 -33 -19 -55 52 -167 80 -244 60z m170 -115 c18 -7 47 -30
65 -50 l32 -37 0 -167 c0 -189 -5 -206 -77 -249 -46 -28 -128 -31 -180 -6 -97
46 -138 232 -87 394 15 48 62 101 104 118 36 14 106 13 143 -3z"/>
<path d="M5530 2313 l0 -368 60 0 60 0 0 368 0 367 -60 0 -60 0 0 -367z"/>
<path d="M9537 2083 c-18 -5 -47 -52 -47 -76 0 -8 9 -26 21 -41 16 -20 29 -26
59 -26 66 0 103 70 63 119 -18 21 -64 33 -96 24z"/>
</g>
</svg>
