<svg xmlns="http://www.w3.org/2000/svg" viewBox="0 0 100 100">
  <defs>
    <style>
      .white-piece { fill: #f0f0f0; stroke: #333; stroke-width: 1.5; }
    </style>
  </defs>
  <!-- Knight head -->
  <path class="white-piece" d="M30 25 C25 20, 25 15, 30 15 C35 10, 45 10, 55 15 C65 15, 70 20, 70 30 C70 35, 65 40, 60 45 L65 50 L60 55 L50 50 L45 55 L40 50 L35 45 C30 40, 25 35, 30 25 Z"/>
  <!-- Knight mane -->
  <path class="white-piece" d="M35 20 C40 15, 50 15, 55 20 C55 25, 50 30, 45 35 C40 30, 35 25, 35 20 Z"/>
  <!-- Knight eye -->
  <circle cx="45" cy="25" r="2" fill="#333"/>
  <!-- Knight body -->
  <path class="white-piece" d="M35 50 L65 50 L60 70 L40 70 Z"/>
  <!-- Base -->
  <ellipse class="white-piece" cx="50" cy="82" rx="25" ry="6"/>
</svg>
