<svg xmlns="http://www.w3.org/2000/svg" viewBox="100 250 800 500">
  <path d="M431.7 587.6l-0.2-0.2c-47.1-35.2-58.9-101.7-26.8-151.2 0.7-1.1 1.4-2.1 2.1-3.2 0.7-1 1.4-2 2.2-3l0.2-0.2c25.1-33.6 66.2-49.2 105.6-43.8-12 3.5-23.1 10.5-31.6 20.5l-0.2-0.2-3.5 5c-16.8 24-15.1 55.5 2 77.5 1.7 2.2 3.6 4.3 5.5 6.3l67.8-129c-60-25.3-131.6-6.3-170.4 49.3-44.6 63.9-28.9 151.8 35 196.4 1.5 1.1 3.1 2.1 4.7 3.1l12.6-23.9C434.9 589.8 433.3 588.7 431.7 587.6z" fill="#00ABF2"/>
  <path d="M586.7 385l42.1-79.9h-17.9L404.7 694.9h17.9l35-64.3c57.2 18.1 121.9-1.9 158.1-53.8C658.8 515 645.5 430.7 586.7 385z M593.5 558.7c-0.7 1.1-1.4 2.1-2.1 3.1-0.7 1-1.4 2-2.2 3-28 37.5-75.6 52.7-118.8 41.4l49.2-93.5c7.2 1.5 14.7 1.9 22.1 0.9 8.8-1.2 17.4-4.1 25.1-8.7 7.9-4.7 14.7-11.1 20-18.6 8.8-12.7 12.6-27.5 11.6-41.9C617.1 479.4 616.5 523.4 593.5 558.7z" fill="#F4581B"/>
  <path d="M285.4 403.5h12.2V370h-12.2c-25 0-45.4 20.4-45.4 45.4v56.8l-45.7 27.7l23.6 14.5l55.5-33v-66C273.5 408.8 278.8 403.5 285.4 403.5z" fill="#00ABF2"/>
  <path d="M273.7 584.6v-66l-26.4-15.7L223 517.4l17.2 10.5v56.8c0 25 20.4 45.4 45.4 45.4h12.2v-33.5h-12.2C279.1 596.5 273.7 591.2 273.7 584.6z" fill="#0079CB"/>
  <path d="M714.6 596.5h-12.2V630h12.2c25 0 45.4-20.4 45.4-45.4v-56.8l45.7-27.7l-23.6-14.5l-55.5 33v66C726.5 591.2 721.2 596.5 714.6 596.5z" fill="#EE3B0D"/>
  <path d="M726.3 415.4v66l26.4 15.7l24.3-14.5l-17.2-10.5v-56.8c0-25-20.4-45.4-45.4-45.4h-12.2v33.5h12.2C720.9 403.5 726.3 408.8 726.3 415.4z" fill="#F4581B"/>
</svg>