<svg xmlns="http://www.w3.org/2000/svg" viewBox="-120.46002197265624 114.96999740600586 815.9200439453125 327.0850009918213"> <svg xmlns="http://www.w3.org/2000/svg" xmlns:xlink="http://www.w3.org/1999/xlink" version="1.1" id="Layer_1" x="172.506" y="184.96999740600586" viewBox="194.3000030517578 305.1000061035156 611.4000244140625 389.8000183105469" xml:space="preserve" height="146.625" width="230" preserveAspectRatio="xMinYMin" enable-background="new 0 0 1000 1000" style="overflow: visible;"><path class="st0" d="M431.7,587.6l-0.2-0.2c-47.1-35.2-58.9-101.7-26.8-151.2c0.7-1.1,1.4-2.1,2.1-3.2c0.7-1,1.4-2,2.2-3l0.2-0.2    c25.1-33.6,66.2-49.2,105.6-43.8c-12,3.5-23.1,10.5-31.6,20.5l-0.2-0.2l-3.5,5c-16.8,24-15.1,55.5,2,77.5c1.7,2.2,3.6,4.3,5.5,6.3    l67.8-129c-60-25.3-131.6-6.3-170.4,49.3c-44.6,63.9-28.9,151.8,35,196.4c1.5,1.1,3.1,2.1,4.7,3.1l12.6-23.9    C434.9,589.8,433.3,588.7,431.7,587.6z" style="fill: #00ABF2;"></path><path class="st1" d="M586.7,385l42.1-79.9h-17.9L404.7,694.9h17.9l35-64.3c57.2,18.1,121.9-1.9,158.1-53.8    C658.8,515,645.5,430.7,586.7,385z M593.5,558.7c-0.7,1.1-1.4,2.1-2.1,3.1c-0.7,1-1.4,2-2.2,3c-28,37.5-75.6,52.7-118.8,41.4    l49.2-93.5c7.2,1.5,14.7,1.9,22.1,0.9c8.8-1.2,17.4-4.1,25.1-8.7c7.9-4.7,14.7-11.1,20-18.6c8.8-12.7,12.6-27.5,11.6-41.9    C617.1,479.4,616.5,523.4,593.5,558.7z" style="fill: #F4581B;"></path><path class="st0" d="M285.4,403.5h12.2V370h-12.2c-25,0-45.4,20.4-45.4,45.4v56.8l-45.7,27.7l23.6,14.5l55.5-33v-66     C273.5,408.8,278.8,403.5,285.4,403.5z" style="fill: #00ABF2;"></path><path class="st2" d="M273.7,584.6v-66l-26.4-15.7L223,517.4l17.2,10.5v56.8c0,25,20.4,45.4,45.4,45.4h12.2v-33.5h-12.2     C279.1,596.5,273.7,591.2,273.7,584.6z" style="fill: #0079CB;"></path><path class="st3" d="M714.6,596.5h-12.2V630h12.2c25,0,45.4-20.4,45.4-45.4v-56.8l45.7-27.7l-23.6-14.5l-55.5,33v66     C726.5,591.2,721.2,596.5,714.6,596.5z" style="fill: #EE3B0D;"></path><path class="st1" d="M726.3,415.4v66l26.4,15.7l24.3-14.5l-17.2-10.5v-56.8c0-25-20.4-45.4-45.4-45.4h-12.2v33.5h12.2     C720.9,403.5,726.3,408.8,726.3,415.4z" style="fill: #F4581B;"></path></svg> <svg y="348.98499870300293" viewBox="1.7899999618530273 9.279999732971191 675.9200439453125 23.06999969482422" x="-50.460021972656236" height="23.06999969482422" width="675.9200439453125" style="overflow: visible;"><g fill="#0079CB" fill-opacity="1" style=""><path d="M24.77 32.35L6.40 32.35Q5.12 32.35 4.08 31.73Q3.04 31.10 2.42 30.06Q1.79 29.02 1.79 27.74L1.79 27.74L1.79 13.92Q1.79 12.64 2.42 11.60Q3.04 10.56 4.08 9.94Q5.12 9.31 6.40 9.31L6.40 9.31L24.77 9.31L24.77 13.95L7.49 13.95Q6.98 13.95 6.69 14.22Q6.40 14.50 6.40 15.04L6.40 15.04L6.40 26.62Q6.40 27.14 6.69 27.42Q6.98 27.71 7.49 27.71L7.49 27.71L24.77 27.71L24.77 32.35ZM41.16 32.35L41.16 32.35L41.16 13.92Q41.16 12.64 41.78 11.60Q42.41 10.56 43.45 9.94Q44.49 9.31 45.77 9.31L45.77 9.31L59.56 9.31Q60.84 9.31 61.88 9.94Q62.92 10.56 63.56 11.60Q64.20 12.64 64.20 13.92L64.20 13.92L64.20 32.35L59.53 32.35L59.53 24.77L45.77 24.77L45.77 32.35L41.16 32.35ZM45.77 20.16L45.77 20.16L59.53 20.16L59.53 14.14Q59.53 14.05 59.48 14.00Q59.43 13.95 59.34 13.95L59.34 13.95L45.96 13.95Q45.86 13.95 45.82 14.00Q45.77 14.05 45.77 14.14L45.77 14.14L45.77 20.16ZM103.82 32.35L98.96 32.35L92.14 24.22L98.19 24.22L103.82 30.91L103.82 32.35ZM85.46 32.35L80.85 32.35L80.85 9.34L99.25 9.34Q100.53 9.34 101.57 9.97Q102.61 10.59 103.25 11.65Q103.89 12.70 103.89 13.95L103.89 13.95L103.89 20.03Q103.89 21.28 103.25 22.32Q102.61 23.36 101.57 23.98Q100.53 24.61 99.25 24.61L99.25 24.61L85.46 24.64L85.46 32.35ZM85.65 19.97L85.65 19.97L99.02 19.97Q99.12 19.97 99.17 19.92Q99.22 19.87 99.22 19.81L99.22 19.81L99.22 14.14Q99.22 14.05 99.17 14.00Q99.12 13.95 99.02 13.95L99.02 13.95L85.65 13.95Q85.55 13.95 85.50 14.00Q85.46 14.05 85.46 14.14L85.46 14.14L85.46 19.81Q85.46 19.87 85.50 19.92Q85.55 19.97 85.65 19.97ZM143.22 32.35L138.36 32.35L131.54 24.22L137.59 24.22L143.22 30.91L143.22 32.35ZM124.86 32.35L120.25 32.35L120.25 9.34L138.65 9.34Q139.93 9.34 140.97 9.97Q142.01 10.59 142.65 11.65Q143.29 12.70 143.29 13.95L143.29 13.95L143.29 20.03Q143.29 21.28 142.65 22.32Q142.01 23.36 140.97 23.98Q139.93 24.61 138.65 24.61L138.65 24.61L124.86 24.64L124.86 32.35ZM125.05 19.97L125.05 19.97L138.42 19.97Q138.52 19.97 138.57 19.92Q138.62 19.87 138.62 19.81L138.62 19.81L138.62 14.14Q138.62 14.05 138.57 14.00Q138.52 13.95 138.42 13.95L138.42 13.95L125.05 13.95Q124.95 13.95 124.90 14.00Q124.86 14.05 124.86 14.14L124.86 14.14L124.86 19.81Q124.86 19.87 124.90 19.92Q124.95 19.97 125.05 19.97ZM178.02 32.35L164.19 32.35Q162.91 32.35 161.87 31.73Q160.83 31.10 160.21 30.06Q159.58 29.02 159.58 27.74L159.58 27.74L159.58 13.92Q159.58 12.64 160.21 11.60Q160.83 10.56 161.87 9.94Q162.91 9.31 164.19 9.31L164.19 9.31L178.02 9.31Q179.26 9.31 180.30 9.94Q181.34 10.56 181.98 11.60Q182.62 12.64 182.62 13.92L182.62 13.92L182.62 27.74Q182.62 29.02 181.98 30.06Q181.34 31.10 180.30 31.73Q179.26 32.35 178.02 32.35L178.02 32.35ZM164.38 27.71L164.38 27.71L177.76 27.71Q177.86 27.71 177.90 27.66Q177.95 27.62 177.95 27.52L177.95 27.52L177.95 14.14Q177.95 14.05 177.90 14.00Q177.86 13.95 177.76 13.95L177.76 13.95L164.38 13.95Q164.29 13.95 164.24 14.00Q164.19 14.05 164.19 14.14L164.19 14.14L164.19 27.52Q164.19 27.62 164.24 27.66Q164.29 27.71 164.38 27.71ZM222.22 32.35L199.18 32.35L199.18 9.28L203.78 9.28L203.78 27.71L222.22 27.71L222.22 32.35ZM260.14 32.35L237.10 32.35L237.10 9.28L241.71 9.28L241.71 27.71L260.14 27.71L260.14 32.35ZM321.06 32.35L302.69 32.35Q301.41 32.35 300.37 31.73Q299.33 31.10 298.70 30.06Q298.08 29.02 298.08 27.74L298.08 27.74L298.08 13.92Q298.08 12.64 298.70 11.60Q299.33 10.56 300.37 9.94Q301.41 9.31 302.69 9.31L302.69 9.31L321.06 9.31L321.06 13.95L303.78 13.95Q303.26 13.95 302.98 14.22Q302.69 14.50 302.69 15.04L302.69 15.04L302.69 26.62Q302.69 27.14 302.98 27.42Q303.26 27.71 303.78 27.71L303.78 27.71L321.06 27.71L321.06 32.35ZM355.75 32.35L341.93 32.35Q340.65 32.35 339.61 31.73Q338.57 31.10 337.94 30.06Q337.32 29.02 337.32 27.74L337.32 27.74L337.32 13.92Q337.32 12.64 337.94 11.60Q338.57 10.56 339.61 9.94Q340.65 9.31 341.93 9.31L341.93 9.31L355.75 9.31Q357 9.31 358.04 9.94Q359.08 10.56 359.72 11.60Q360.36 12.64 360.36 13.92L360.36 13.92L360.36 27.74Q360.36 29.02 359.72 30.06Q359.08 31.10 358.04 31.73Q357 32.35 355.75 32.35L355.75 32.35ZM342.12 27.71L342.12 27.71L355.50 27.71Q355.59 27.71 355.64 27.66Q355.69 27.62 355.69 27.52L355.69 27.52L355.69 14.14Q355.69 14.05 355.64 14.00Q355.59 13.95 355.50 13.95L355.50 13.95L342.12 13.95Q342.02 13.95 341.98 14.00Q341.93 14.05 341.93 14.14L341.93 14.14L341.93 27.52Q341.93 27.62 341.98 27.66Q342.02 27.71 342.12 27.71ZM381.49 32.35L376.88 32.35L376.88 9.31L381.78 9.31L389.84 18.94L397.87 9.31L402.80 9.31L402.80 32.35L398.16 32.35L398.16 16.19L389.84 26.14L381.49 16.22L381.49 32.35ZM424.18 32.35L419.58 32.35L419.58 9.34L437.98 9.34Q439.26 9.34 440.30 9.97Q441.34 10.59 441.98 11.65Q442.62 12.70 442.62 13.95L442.62 13.95L442.62 20.03Q442.62 21.28 441.98 22.32Q441.34 23.36 440.30 23.98Q439.26 24.61 437.98 24.61L437.98 24.61L424.18 24.64L424.18 32.35ZM424.38 19.97L424.38 19.97L437.75 19.97Q437.85 19.97 437.90 19.92Q437.94 19.87 437.94 19.81L437.94 19.81L437.94 14.14Q437.94 14.05 437.90 14.00Q437.85 13.95 437.75 13.95L437.75 13.95L424.38 13.95Q424.28 13.95 424.23 14.00Q424.18 14.05 424.18 14.14L424.18 14.14L424.18 19.81Q424.18 19.87 424.23 19.92Q424.28 19.97 424.38 19.97ZM462.43 32.35L462.43 32.35Q461.15 32.35 460.11 31.73Q459.07 31.10 458.45 30.06Q457.82 29.02 457.82 27.74L457.82 27.74L457.82 9.31L462.43 9.31L462.43 27.52Q462.43 27.62 462.48 27.66Q462.53 27.71 462.62 27.71L462.62 27.71L476 27.71Q476.10 27.71 476.14 27.66Q476.19 27.62 476.19 27.52L476.19 27.52L476.19 9.31L480.86 9.31L480.86 27.74Q480.86 29.02 480.22 30.06Q479.58 31.10 478.54 31.73Q477.50 32.35 476.26 32.35L476.26 32.35L462.43 32.35ZM510.09 32.35L505.45 32.35L505.45 32.35L505.45 13.95L496.23 13.95L496.23 9.31L519.27 9.31L519.27 13.95L510.09 13.95L510.09 32.35ZM555.98 32.35L534.74 32.35L534.74 9.31L555.98 9.31L555.98 13.95L539.41 13.95L539.41 18.50L552.75 18.50L552.75 23.17L539.41 23.17L539.41 27.71L555.98 27.71L555.98 32.35ZM599.20 32.35L594.62 32.35L594.62 9.31L599.20 9.31L599.20 32.35ZM619.72 32.35L615.11 32.35L615.11 9.31L620.01 9.31L633.48 25.38L633.48 9.31L638.15 9.31L638.15 32.35L633.26 32.35L619.72 16.22L619.72 32.35ZM677.71 32.35L659.34 32.35Q658.06 32.35 657.02 31.73Q655.98 31.10 655.36 30.06Q654.74 29.02 654.74 27.74L654.74 27.74L654.74 13.92Q654.74 12.64 655.36 11.60Q655.98 10.56 657.02 9.94Q658.06 9.31 659.34 9.31L659.34 9.31L677.71 9.31L677.71 13.95L660.43 13.95Q659.92 13.95 659.63 14.22Q659.34 14.50 659.34 15.04L659.34 15.04L659.34 26.62Q659.34 27.14 659.63 27.42Q659.92 27.71 660.43 27.71L660.43 27.71L677.71 27.71L677.71 32.35Z" transform="translate(0, 0)"></path></g></svg></svg>